<svg viewBox="0 0 24 24" fill="none" xmlns="http://www.w3.org/2000/svg" id="Notes-Minimalistic--Streamline-Solar-Ar" height="24" width="24">
  <desc>
    Notes Minimalistic Streamline Icon: https://streamlinehq.com
  </desc>
  <path d="m20.3116 12.6473 0.5177 -1.9319c0.6042 -2.25506 0.9063 -3.3826 0.6788 -4.35837 -0.1796 -0.77046 -0.5837 -1.47035 -1.1611 -2.01116 -0.7313 -0.68492 -1.8589 -0.98704 -4.1139 -1.59129 -2.2551 -0.60425 -3.3827 -0.90637 -4.3584 -0.67885 -0.7705 0.17964 -1.4704 0.58372 -2.01119 1.16114 -0.58642 0.62611 -0.89223 1.5427 -1.3473 3.20874 -0.07642 0.27979 -0.15706 0.58072 -0.24394 0.90496l-0.00005 0.0002 -0.51764 1.93186c-0.60425 2.25507 -0.90637 3.38257 -0.67885 4.35837 0.17964 0.7705 0.58372 1.4704 1.16114 2.0112 0.73128 0.6849 1.85883 0.987 4.11393 1.5913 2.0326 0.5446 3.1491 0.8438 4.0642 0.7309 0.1002 -0.0123 0.1979 -0.0296 0.2942 -0.0521 0.7704 -0.1796 1.4703 -0.5837 2.0111 -1.1611 0.6849 -0.7313 0.9871 -1.8588 1.5913 -4.1139Z" stroke="#a6a6a6" stroke-width="1.5"></path>
  <path d="M16.415 17.9741c-0.2085 0.6385 -0.5751 1.2161 -1.068 1.6778 -0.7313 0.6849 -1.8589 0.987 -4.1139 1.5913 -2.25512 0.6042 -3.38266 0.9063 -4.35844 0.6788 -0.77045 -0.1796 -1.47034 -0.5837 -2.01115 -1.1611 -0.68492 -0.7313 -0.98704 -1.8588 -1.59129 -4.1139l-0.51764 -1.9319c-0.60425 -2.2551 -0.90637 -3.3826 -0.67885 -4.3584 0.17964 -0.77043 0.58372 -1.47032 1.16114 -2.01113 0.73128 -0.68492 1.85882 -0.98704 4.1139 -1.59129 0.42664 -0.11432 0.81291 -0.21782 1.16544 -0.30897" stroke="#a6a6a6" stroke-width="1.5"></path>
</svg>